# MagicaVoxel @ Ephtracy

# group
g floor1

# material
mtllib floor1.mtl
usemtl palette

# normals
vn -1 0 0
vn 1 0 0
vn 0 0 1
vn 0 0 -1
vn 0 -1 0
vn 0 1 0

# texcoords
vt 0.677734 0.5
vt 0.962891 0.5
vt 0.974609 0.5
vt 0.986328 0.5
vt 0.994141 0.5

# verts
v -20 0 20
v -20 0 -20
v -20 1 20
v -20 1 -20
v 20 0 20
v 20 0 -20
v 20 1 20
v 20 1 -20
v -20 0 20
v -20 1 20
v 20 0 20
v 20 1 20
v -20 0 -20
v -20 1 -20
v 20 0 -20
v 20 1 -20
v -20 0 20
v 20 0 20
v -19 0 19
v -1 0 19
v 1 0 19
v 19 0 19
v -18 0 18
v -2 0 18
v 1 0 18
v 4 0 18
v 6 0 18
v 18 0 18
v -18 0 17
v -17 0 17
v -16 0 17
v -3 0 17
v 1 0 17
v 3 0 17
v 5 0 17
v 6 0 17
v 7 0 17
v 17 0 17
v -18 0 16
v -17 0 16
v -16 0 16
v 4 0 16
v 5 0 16
v 7 0 16
v -19 0 15
v -18 0 15
v -17 0 15
v 3 0 15
v 5 0 15
v -19 0 14
v -18 0 14
v -19 0 1
v -3 0 1
v -2 0 1
v -1 0 1
v 1 0 1
v 3 0 1
v 17 0 1
v 18 0 1
v 19 0 1
v -19 0 -1
v -3 0 -1
v -1 0 -1
v 1 0 -1
v 3 0 -1
v 19 0 -1
v -19 0 -2
v -2 0 -2
v 1 0 -2
v 18 0 -2
v -19 0 -3
v -3 0 -3
v -1 0 -3
v 1 0 -3
v 17 0 -3
v -19 0 -16
v -17 0 -16
v 17 0 -17
v 18 0 -17
v -19 0 -18
v -17 0 -18
v -3 0 -18
v -2 0 -18
v -1 0 -18
v 1 0 -18
v 17 0 -18
v 19 0 -18
v -20 0 -20
v 20 0 -20
v -20 1 20
v 20 1 20
v -19 1 19
v -1 1 19
v 1 1 19
v 19 1 19
v -18 1 18
v -2 1 18
v 1 1 18
v 4 1 18
v 6 1 18
v 18 1 18
v -18 1 17
v -17 1 17
v -16 1 17
v -3 1 17
v 1 1 17
v 3 1 17
v 5 1 17
v 6 1 17
v 7 1 17
v 17 1 17
v -18 1 16
v -17 1 16
v -16 1 16
v 4 1 16
v 5 1 16
v 7 1 16
v -19 1 15
v -18 1 15
v -17 1 15
v 3 1 15
v 5 1 15
v -19 1 14
v -18 1 14
v -19 1 1
v -3 1 1
v -2 1 1
v -1 1 1
v 1 1 1
v 3 1 1
v 17 1 1
v 18 1 1
v 19 1 1
v -19 1 -1
v -3 1 -1
v -1 1 -1
v 1 1 -1
v 3 1 -1
v 19 1 -1
v -19 1 -2
v -2 1 -2
v 1 1 -2
v 18 1 -2
v -19 1 -3
v -3 1 -3
v -1 1 -3
v 1 1 -3
v 17 1 -3
v -19 1 -16
v -17 1 -16
v 17 1 -17
v 18 1 -17
v -19 1 -18
v -17 1 -18
v -3 1 -18
v -2 1 -18
v -1 1 -18
v 1 1 -18
v 17 1 -18
v 19 1 -18
v -20 1 -20
v 20 1 -20

# faces
f 3/5/1 2/5/1 1/5/1
f 4/5/1 2/5/1 3/5/1
f 5/5/2 6/5/2 7/5/2
f 7/5/2 6/5/2 8/5/2
f 11/5/3 10/5/3 9/5/3
f 12/5/3 10/5/3 11/5/3
f 13/5/4 14/5/4 15/5/4
f 15/5/4 14/5/4 16/5/4
f 19/5/5 18/5/5 17/5/5
f 20/5/5 18/5/5 19/5/5
f 21/5/5 18/5/5 20/5/5
f 22/5/5 18/5/5 21/5/5
f 23/4/5 20/4/5 19/4/5
f 24/4/5 20/4/5 23/4/5
f 25/1/5 21/1/5 20/1/5
f 25/4/5 22/4/5 21/4/5
f 26/4/5 22/4/5 25/4/5
f 27/4/5 22/4/5 26/4/5
f 28/4/5 22/4/5 27/4/5
f 29/2/5 24/2/5 23/2/5
f 29/4/5 23/4/5 19/4/5
f 30/2/5 24/2/5 29/2/5
f 31/2/5 24/2/5 30/2/5
f 32/2/5 24/2/5 31/2/5
f 33/1/5 25/1/5 20/1/5
f 33/2/5 26/2/5 25/2/5
f 34/2/5 26/2/5 33/2/5
f 35/4/5 27/4/5 26/4/5
f 36/2/5 28/2/5 27/2/5
f 36/4/5 27/4/5 35/4/5
f 37/2/5 28/2/5 36/2/5
f 38/2/5 28/2/5 37/2/5
f 39/4/5 29/4/5 19/4/5
f 39/4/5 30/4/5 29/4/5
f 40/2/5 31/2/5 30/2/5
f 40/4/5 30/4/5 39/4/5
f 41/3/5 32/3/5 31/3/5
f 41/2/5 31/2/5 40/2/5
f 42/4/5 35/4/5 26/4/5
f 42/2/5 26/2/5 34/2/5
f 43/2/5 36/2/5 35/2/5
f 43/4/5 35/4/5 42/4/5
f 43/2/5 37/2/5 36/2/5
f 44/3/5 38/3/5 37/3/5
f 44/2/5 37/2/5 43/2/5
f 45/5/5 19/5/5 17/5/5
f 45/4/5 39/4/5 19/4/5
f 46/2/5 40/2/5 39/2/5
f 46/4/5 39/4/5 45/4/5
f 47/3/5 41/3/5 40/3/5
f 47/2/5 40/2/5 46/2/5
f 48/2/5 43/2/5 42/2/5
f 48/3/5 34/3/5 33/3/5
f 48/2/5 42/2/5 34/2/5
f 49/3/5 44/3/5 43/3/5
f 49/2/5 43/2/5 48/2/5
f 50/5/5 45/5/5 17/5/5
f 50/2/5 46/2/5 45/2/5
f 51/3/5 47/3/5 46/3/5
f 51/2/5 46/2/5 50/2/5
f 52/5/5 50/5/5 17/5/5
f 52/3/5 51/3/5 50/3/5
f 53/3/5 32/3/5 41/3/5
f 53/3/5 51/3/5 52/3/5
f 53/2/5 24/2/5 32/2/5
f 53/3/5 47/3/5 51/3/5
f 53/3/5 41/3/5 47/3/5
f 54/4/5 20/4/5 24/4/5
f 54/2/5 24/2/5 53/2/5
f 55/1/5 33/1/5 20/1/5
f 55/4/5 20/4/5 54/4/5
f 56/3/5 49/3/5 48/3/5
f 56/1/5 33/1/5 55/1/5
f 56/3/5 48/3/5 33/3/5
f 57/3/5 49/3/5 56/3/5
f 58/3/5 38/3/5 44/3/5
f 58/3/5 49/3/5 57/3/5
f 58/3/5 44/3/5 49/3/5
f 58/2/5 28/2/5 38/2/5
f 59/4/5 22/4/5 28/4/5
f 59/2/5 28/2/5 58/2/5
f 60/5/5 18/5/5 22/5/5
f 60/4/5 22/4/5 59/4/5
f 61/1/5 53/1/5 52/1/5
f 61/5/5 52/5/5 17/5/5
f 62/5/5 57/5/5 56/5/5
f 62/1/5 53/1/5 61/1/5
f 62/5/5 54/5/5 53/5/5
f 62/5/5 55/5/5 54/5/5
f 62/5/5 56/5/5 55/5/5
f 63/5/5 57/5/5 62/5/5
f 64/5/5 57/5/5 63/5/5
f 65/1/5 59/1/5 58/1/5
f 65/5/5 57/5/5 64/5/5
f 65/1/5 58/1/5 57/1/5
f 65/1/5 60/1/5 59/1/5
f 66/5/5 18/5/5 60/5/5
f 66/1/5 60/1/5 65/1/5
f 67/5/5 61/5/5 17/5/5
f 67/4/5 63/4/5 62/4/5
f 67/4/5 62/4/5 61/4/5
f 68/4/5 63/4/5 67/4/5
f 69/5/5 64/5/5 63/5/5
f 69/4/5 65/4/5 64/4/5
f 69/4/5 66/4/5 65/4/5
f 70/4/5 66/4/5 69/4/5
f 71/2/5 68/2/5 67/2/5
f 71/5/5 67/5/5 17/5/5
f 72/2/5 68/2/5 71/2/5
f 73/4/5 63/4/5 68/4/5
f 73/5/5 69/5/5 63/5/5
f 74/2/5 70/2/5 69/2/5
f 74/5/5 69/5/5 73/5/5
f 75/2/5 70/2/5 74/2/5
f 76/3/5 72/3/5 71/3/5
f 76/5/5 71/5/5 17/5/5
f 77/3/5 72/3/5 76/3/5
f 78/2/5 70/2/5 75/2/5
f 78/3/5 75/3/5 74/3/5
f 79/4/5 66/4/5 70/4/5
f 79/2/5 70/2/5 78/2/5
f 80/4/5 77/4/5 76/4/5
f 80/5/5 76/5/5 17/5/5
f 81/3/5 72/3/5 77/3/5
f 81/4/5 77/4/5 80/4/5
f 82/2/5 68/2/5 72/2/5
f 82/3/5 72/3/5 81/3/5
f 83/4/5 73/4/5 68/4/5
f 83/2/5 68/2/5 82/2/5
f 84/1/5 74/1/5 73/1/5
f 84/4/5 73/4/5 83/4/5
f 85/3/5 78/3/5 74/3/5
f 85/1/5 74/1/5 84/1/5
f 86/4/5 79/4/5 78/4/5
f 86/3/5 78/3/5 85/3/5
f 87/5/5 18/5/5 66/5/5
f 87/4/5 79/4/5 86/4/5
f 87/4/5 66/4/5 79/4/5
f 88/5/5 86/5/5 85/5/5
f 88/5/5 81/5/5 80/5/5
f 88/5/5 87/5/5 86/5/5
f 88/5/5 83/5/5 82/5/5
f 88/5/5 85/5/5 84/5/5
f 88/5/5 80/5/5 17/5/5
f 88/5/5 82/5/5 81/5/5
f 88/5/5 84/5/5 83/5/5
f 89/5/5 18/5/5 87/5/5
f 89/5/5 87/5/5 88/5/5
f 90/5/6 91/5/6 92/5/6
f 92/5/6 91/5/6 93/5/6
f 93/5/6 91/5/6 94/5/6
f 94/5/6 91/5/6 95/5/6
f 92/4/6 93/4/6 96/4/6
f 96/4/6 93/4/6 97/4/6
f 93/1/6 94/1/6 98/1/6
f 94/4/6 95/4/6 98/4/6
f 98/4/6 95/4/6 99/4/6
f 99/4/6 95/4/6 100/4/6
f 100/4/6 95/4/6 101/4/6
f 96/2/6 97/2/6 102/2/6
f 92/4/6 96/4/6 102/4/6
f 102/2/6 97/2/6 103/2/6
f 103/2/6 97/2/6 104/2/6
f 104/2/6 97/2/6 105/2/6
f 93/1/6 98/1/6 106/1/6
f 98/2/6 99/2/6 106/2/6
f 106/2/6 99/2/6 107/2/6
f 99/4/6 100/4/6 108/4/6
f 100/2/6 101/2/6 109/2/6
f 108/4/6 100/4/6 109/4/6
f 109/2/6 101/2/6 110/2/6
f 110/2/6 101/2/6 111/2/6
f 92/4/6 102/4/6 112/4/6
f 102/4/6 103/4/6 112/4/6
f 103/2/6 104/2/6 113/2/6
f 112/4/6 103/4/6 113/4/6
f 104/3/6 105/3/6 114/3/6
f 113/2/6 104/2/6 114/2/6
f 99/4/6 108/4/6 115/4/6
f 107/2/6 99/2/6 115/2/6
f 108/2/6 109/2/6 116/2/6
f 115/4/6 108/4/6 116/4/6
f 109/2/6 110/2/6 116/2/6
f 110/3/6 111/3/6 117/3/6
f 116/2/6 110/2/6 117/2/6
f 90/5/6 92/5/6 118/5/6
f 92/4/6 112/4/6 118/4/6
f 112/2/6 113/2/6 119/2/6
f 118/4/6 112/4/6 119/4/6
f 113/3/6 114/3/6 120/3/6
f 119/2/6 113/2/6 120/2/6
f 115/2/6 116/2/6 121/2/6
f 106/3/6 107/3/6 121/3/6
f 107/2/6 115/2/6 121/2/6
f 116/3/6 117/3/6 122/3/6
f 121/2/6 116/2/6 122/2/6
f 90/5/6 118/5/6 123/5/6
f 118/2/6 119/2/6 123/2/6
f 119/3/6 120/3/6 124/3/6
f 123/2/6 119/2/6 124/2/6
f 90/5/6 123/5/6 125/5/6
f 123/3/6 124/3/6 125/3/6
f 114/3/6 105/3/6 126/3/6
f 125/3/6 124/3/6 126/3/6
f 105/2/6 97/2/6 126/2/6
f 124/3/6 120/3/6 126/3/6
f 120/3/6 114/3/6 126/3/6
f 97/4/6 93/4/6 127/4/6
f 126/2/6 97/2/6 127/2/6
f 93/1/6 106/1/6 128/1/6
f 127/4/6 93/4/6 128/4/6
f 121/3/6 122/3/6 129/3/6
f 128/1/6 106/1/6 129/1/6
f 106/3/6 121/3/6 129/3/6
f 129/3/6 122/3/6 130/3/6
f 117/3/6 111/3/6 131/3/6
f 130/3/6 122/3/6 131/3/6
f 122/3/6 117/3/6 131/3/6
f 111/2/6 101/2/6 131/2/6
f 101/4/6 95/4/6 132/4/6
f 131/2/6 101/2/6 132/2/6
f 95/5/6 91/5/6 133/5/6
f 132/4/6 95/4/6 133/4/6
f 125/1/6 126/1/6 134/1/6
f 90/5/6 125/5/6 134/5/6
f 129/5/6 130/5/6 135/5/6
f 134/1/6 126/1/6 135/1/6
f 126/5/6 127/5/6 135/5/6
f 127/5/6 128/5/6 135/5/6
f 128/5/6 129/5/6 135/5/6
f 135/5/6 130/5/6 136/5/6
f 136/5/6 130/5/6 137/5/6
f 131/1/6 132/1/6 138/1/6
f 137/5/6 130/5/6 138/5/6
f 130/1/6 131/1/6 138/1/6
f 132/1/6 133/1/6 138/1/6
f 133/5/6 91/5/6 139/5/6
f 138/1/6 133/1/6 139/1/6
f 90/5/6 134/5/6 140/5/6
f 135/4/6 136/4/6 140/4/6
f 134/4/6 135/4/6 140/4/6
f 140/4/6 136/4/6 141/4/6
f 136/5/6 137/5/6 142/5/6
f 137/4/6 138/4/6 142/4/6
f 138/4/6 139/4/6 142/4/6
f 142/4/6 139/4/6 143/4/6
f 140/2/6 141/2/6 144/2/6
f 90/5/6 140/5/6 144/5/6
f 144/2/6 141/2/6 145/2/6
f 141/4/6 136/4/6 146/4/6
f 136/5/6 142/5/6 146/5/6
f 142/2/6 143/2/6 147/2/6
f 146/5/6 142/5/6 147/5/6
f 147/2/6 143/2/6 148/2/6
f 144/3/6 145/3/6 149/3/6
f 90/5/6 144/5/6 149/5/6
f 149/3/6 145/3/6 150/3/6
f 148/2/6 143/2/6 151/2/6
f 147/3/6 148/3/6 151/3/6
f 143/4/6 139/4/6 152/4/6
f 151/2/6 143/2/6 152/2/6
f 149/4/6 150/4/6 153/4/6
f 90/5/6 149/5/6 153/5/6
f 150/3/6 145/3/6 154/3/6
f 153/4/6 150/4/6 154/4/6
f 145/2/6 141/2/6 155/2/6
f 154/3/6 145/3/6 155/3/6
f 141/4/6 146/4/6 156/4/6
f 155/2/6 141/2/6 156/2/6
f 146/1/6 147/1/6 157/1/6
f 156/4/6 146/4/6 157/4/6
f 147/3/6 151/3/6 158/3/6
f 157/1/6 147/1/6 158/1/6
f 151/4/6 152/4/6 159/4/6
f 158/3/6 151/3/6 159/3/6
f 139/5/6 91/5/6 160/5/6
f 159/4/6 152/4/6 160/4/6
f 152/4/6 139/4/6 160/4/6
f 158/5/6 159/5/6 161/5/6
f 153/5/6 154/5/6 161/5/6
f 159/5/6 160/5/6 161/5/6
f 155/5/6 156/5/6 161/5/6
f 157/5/6 158/5/6 161/5/6
f 90/5/6 153/5/6 161/5/6
f 154/5/6 155/5/6 161/5/6
f 156/5/6 157/5/6 161/5/6
f 160/5/6 91/5/6 162/5/6
f 161/5/6 160/5/6 162/5/6
