# MagicaVoxel @ Ephtracy

# group
g floor2

# material
mtllib floor2.mtl
usemtl palette

# normals
vn -1 0 0
vn 1 0 0
vn 0 0 1
vn 0 0 -1
vn 0 -1 0
vn 0 1 0

# texcoords
vt 0.962891 0.5
vt 0.974609 0.5
vt 0.986328 0.5
vt 0.994141 0.5

# verts
v -20 0 20
v -20 0 -20
v -20 1 20
v -20 1 -20
v 20 0 20
v 20 0 -20
v 20 1 20
v 20 1 -20
v -20 0 20
v -20 1 20
v 20 0 20
v 20 1 20
v -20 0 -20
v -20 1 -20
v 20 0 -20
v 20 1 -20
v -20 0 20
v 20 0 20
v -18 0 18
v 10 0 18
v 14 0 18
v 17 0 18
v 18 0 18
v -18 0 17
v 9 0 17
v 12 0 17
v 14 0 17
v 17 0 17
v 18 0 17
v 9 0 8
v 10 0 8
v 11 0 8
v 10 0 7
v 11 0 7
v 12 0 7
v 12 0 6
v 17 0 6
v 13 0 4
v 17 0 4
v 12 0 3
v 13 0 3
v 17 0 3
v -9 0 -15
v -7 0 -15
v -3 0 -15
v -7 0 -16
v -5 0 -16
v -3 0 -16
v -2 0 -16
v -9 0 -17
v -7 0 -17
v -18 0 -18
v -7 0 -18
v -5 0 -18
v -2 0 -18
v 17 0 -18
v 18 0 -18
v -20 0 -20
v 20 0 -20
v -20 1 20
v 20 1 20
v -18 1 18
v 10 1 18
v 14 1 18
v 17 1 18
v 18 1 18
v -18 1 17
v 9 1 17
v 12 1 17
v 14 1 17
v 17 1 17
v 18 1 17
v 9 1 8
v 10 1 8
v 11 1 8
v 10 1 7
v 11 1 7
v 12 1 7
v 12 1 6
v 17 1 6
v 13 1 4
v 17 1 4
v 12 1 3
v 13 1 3
v 17 1 3
v -9 1 -15
v -7 1 -15
v -3 1 -15
v -7 1 -16
v -5 1 -16
v -3 1 -16
v -2 1 -16
v -9 1 -17
v -7 1 -17
v -18 1 -18
v -7 1 -18
v -5 1 -18
v -2 1 -18
v 17 1 -18
v 18 1 -18
v -20 1 -20
v 20 1 -20

# faces
f 3/4/1 2/4/1 1/4/1
f 4/4/1 2/4/1 3/4/1
f 5/4/2 6/4/2 7/4/2
f 7/4/2 6/4/2 8/4/2
f 11/4/3 10/4/3 9/4/3
f 12/4/3 10/4/3 11/4/3
f 13/4/4 14/4/4 15/4/4
f 15/4/4 14/4/4 16/4/4
f 19/4/5 18/4/5 17/4/5
f 20/4/5 18/4/5 19/4/5
f 21/4/5 18/4/5 20/4/5
f 22/4/5 18/4/5 21/4/5
f 23/4/5 18/4/5 22/4/5
f 24/4/5 19/4/5 17/4/5
f 24/1/5 20/1/5 19/1/5
f 25/1/5 20/1/5 24/1/5
f 26/3/5 21/3/5 20/3/5
f 27/1/5 22/1/5 21/1/5
f 27/3/5 21/3/5 26/3/5
f 28/3/5 23/3/5 22/3/5
f 28/1/5 22/1/5 27/1/5
f 29/4/5 18/4/5 23/4/5
f 29/3/5 23/3/5 28/3/5
f 30/1/5 20/1/5 25/1/5
f 30/2/5 25/2/5 24/2/5
f 31/3/5 26/3/5 20/3/5
f 31/1/5 20/1/5 30/1/5
f 32/3/5 26/3/5 31/3/5
f 33/2/5 31/2/5 30/2/5
f 33/1/5 32/1/5 31/1/5
f 34/3/5 26/3/5 32/3/5
f 34/1/5 32/1/5 33/1/5
f 35/2/5 28/2/5 27/2/5
f 35/3/5 26/3/5 34/3/5
f 35/2/5 27/2/5 26/2/5
f 36/2/5 34/2/5 33/2/5
f 36/2/5 28/2/5 35/2/5
f 36/2/5 35/2/5 34/2/5
f 37/1/5 29/1/5 28/1/5
f 37/2/5 28/2/5 36/2/5
f 38/3/5 37/3/5 36/3/5
f 39/1/5 29/1/5 37/1/5
f 39/3/5 37/3/5 38/3/5
f 40/2/5 36/2/5 33/2/5
f 40/3/5 38/3/5 36/3/5
f 41/1/5 39/1/5 38/1/5
f 41/3/5 38/3/5 40/3/5
f 42/1/5 29/1/5 39/1/5
f 42/1/5 39/1/5 41/1/5
f 43/2/5 41/2/5 40/2/5
f 43/2/5 33/2/5 30/2/5
f 43/2/5 42/2/5 41/2/5
f 43/2/5 40/2/5 33/2/5
f 43/2/5 30/2/5 24/2/5
f 44/2/5 42/2/5 43/2/5
f 45/2/5 42/2/5 44/2/5
f 46/3/5 44/3/5 43/3/5
f 46/1/5 45/1/5 44/1/5
f 47/1/5 45/1/5 46/1/5
f 48/2/5 42/2/5 45/2/5
f 48/1/5 45/1/5 47/1/5
f 49/2/5 42/2/5 48/2/5
f 50/2/5 43/2/5 24/2/5
f 50/3/5 47/3/5 46/3/5
f 50/3/5 46/3/5 43/3/5
f 51/3/5 47/3/5 50/3/5
f 52/4/5 24/4/5 17/4/5
f 52/2/5 50/2/5 24/2/5
f 52/2/5 51/2/5 50/2/5
f 53/3/5 47/3/5 51/3/5
f 53/2/5 51/2/5 52/2/5
f 54/1/5 49/1/5 48/1/5
f 54/3/5 47/3/5 53/3/5
f 54/1/5 48/1/5 47/1/5
f 55/2/5 42/2/5 49/2/5
f 55/1/5 49/1/5 54/1/5
f 56/1/5 29/1/5 42/1/5
f 56/2/5 42/2/5 55/2/5
f 57/4/5 18/4/5 29/4/5
f 57/1/5 29/1/5 56/1/5
f 58/4/5 55/4/5 54/4/5
f 58/4/5 52/4/5 17/4/5
f 58/4/5 57/4/5 56/4/5
f 58/4/5 53/4/5 52/4/5
f 58/4/5 54/4/5 53/4/5
f 58/4/5 56/4/5 55/4/5
f 59/4/5 18/4/5 57/4/5
f 59/4/5 57/4/5 58/4/5
f 60/4/6 61/4/6 62/4/6
f 62/4/6 61/4/6 63/4/6
f 63/4/6 61/4/6 64/4/6
f 64/4/6 61/4/6 65/4/6
f 65/4/6 61/4/6 66/4/6
f 60/4/6 62/4/6 67/4/6
f 62/1/6 63/1/6 67/1/6
f 67/1/6 63/1/6 68/1/6
f 63/3/6 64/3/6 69/3/6
f 64/1/6 65/1/6 70/1/6
f 69/3/6 64/3/6 70/3/6
f 65/3/6 66/3/6 71/3/6
f 70/1/6 65/1/6 71/1/6
f 66/4/6 61/4/6 72/4/6
f 71/3/6 66/3/6 72/3/6
f 68/1/6 63/1/6 73/1/6
f 67/2/6 68/2/6 73/2/6
f 63/3/6 69/3/6 74/3/6
f 73/1/6 63/1/6 74/1/6
f 74/3/6 69/3/6 75/3/6
f 73/2/6 74/2/6 76/2/6
f 74/1/6 75/1/6 76/1/6
f 75/3/6 69/3/6 77/3/6
f 76/1/6 75/1/6 77/1/6
f 70/2/6 71/2/6 78/2/6
f 77/3/6 69/3/6 78/3/6
f 69/2/6 70/2/6 78/2/6
f 76/2/6 77/2/6 79/2/6
f 78/2/6 71/2/6 79/2/6
f 77/2/6 78/2/6 79/2/6
f 71/1/6 72/1/6 80/1/6
f 79/2/6 71/2/6 80/2/6
f 79/3/6 80/3/6 81/3/6
f 80/1/6 72/1/6 82/1/6
f 81/3/6 80/3/6 82/3/6
f 76/2/6 79/2/6 83/2/6
f 79/3/6 81/3/6 83/3/6
f 81/1/6 82/1/6 84/1/6
f 83/3/6 81/3/6 84/3/6
f 82/1/6 72/1/6 85/1/6
f 84/1/6 82/1/6 85/1/6
f 83/2/6 84/2/6 86/2/6
f 73/2/6 76/2/6 86/2/6
f 84/2/6 85/2/6 86/2/6
f 76/2/6 83/2/6 86/2/6
f 67/2/6 73/2/6 86/2/6
f 86/2/6 85/2/6 87/2/6
f 87/2/6 85/2/6 88/2/6
f 86/3/6 87/3/6 89/3/6
f 87/1/6 88/1/6 89/1/6
f 89/1/6 88/1/6 90/1/6
f 88/2/6 85/2/6 91/2/6
f 90/1/6 88/1/6 91/1/6
f 91/2/6 85/2/6 92/2/6
f 67/2/6 86/2/6 93/2/6
f 89/3/6 90/3/6 93/3/6
f 86/3/6 89/3/6 93/3/6
f 93/3/6 90/3/6 94/3/6
f 60/4/6 67/4/6 95/4/6
f 67/2/6 93/2/6 95/2/6
f 93/2/6 94/2/6 95/2/6
f 94/3/6 90/3/6 96/3/6
f 95/2/6 94/2/6 96/2/6
f 91/1/6 92/1/6 97/1/6
f 96/3/6 90/3/6 97/3/6
f 90/1/6 91/1/6 97/1/6
f 92/2/6 85/2/6 98/2/6
f 97/1/6 92/1/6 98/1/6
f 85/1/6 72/1/6 99/1/6
f 98/2/6 85/2/6 99/2/6
f 72/4/6 61/4/6 100/4/6
f 99/1/6 72/1/6 100/1/6
f 97/4/6 98/4/6 101/4/6
f 60/4/6 95/4/6 101/4/6
f 99/4/6 100/4/6 101/4/6
f 95/4/6 96/4/6 101/4/6
f 96/4/6 97/4/6 101/4/6
f 98/4/6 99/4/6 101/4/6
f 100/4/6 61/4/6 102/4/6
f 101/4/6 100/4/6 102/4/6
